<?xml version="1.0" encoding="UTF-8"?>
<svg xmlns="http://www.w3.org/2000/svg" version="1.1" viewBox="0 0 2200 2200">
  <defs>
    <style>
      .cls-1 {
        fill: red;
      }
    </style>
  </defs>
  <!-- Generator: Adobe Illustrator 28.6.0, SVG Export Plug-In . SVG Version: 1.2.0 Build 709)  -->
  <g>
    <g id="Objects">
      <g>
        <circle class="cls-1" cx="1100" cy="581.9" r="301.1" transform="translate(-89.3 948.3) rotate(-45)"/>
        <path class="cls-1" d="M1323.8,923.3c-58.4,49.1-129.8,70.7-223.8,70.7s-156.9-21.2-224.6-71.6c-210.6,38.4-282.7,245.1-282.7,406.1v66.9c0,61.3,30.7,118.8,82.4,151.9,15.9,10.2,34.6,20.6,56.5,30.6,14.5,190.6,174.2,341.3,368.5,341.3s354-150.7,368.5-341.3c20.8-9.5,38.8-19.4,54.2-29.1,52.7-33.2,84.6-91.1,84.6-153.4v-66.9c0-148.2-64.9-363.4-283.5-405.1ZM1100,1855.2c-168.5,0-305.6-137.1-305.6-305.6s137.1-305.6,305.6-305.6,305.6,137.1,305.6,305.6-137.1,305.6-305.6,305.6Z"/>
        <circle class="cls-1" cx="1707.3" cy="513.3" r="223.7"/>
        <path class="cls-1" d="M1873.6,766.8c-43.4,36.5-96.4,52.5-166.3,52.5s-116.6-15.7-166.9-53.2c-63.7,11.6-110.3,43.9-143.2,86.2,96.5,32.4,174.1,97.5,226.5,190.8,53.6,95.4,67.6,195.4,70.4,258.9,4.4,0,8.8,0,13.2,0,163.6,0,259.8-36.5,314-70.7,39.1-24.7,62.9-67.7,62.9-113.9v-49.7c0-110.1-48.2-270-210.6-301Z"/>
        <circle class="cls-1" cx="492.7" cy="513.3" r="223.7"/>
        <path class="cls-1" d="M178.7,1231.4c54.2,34.2,150.4,70.7,314,70.7s8.9,0,13.2,0c2.8-63.6,16.8-163.5,70.4-258.9,52.4-93.3,130-158.4,226.5-190.8-32.9-42.3-79.5-74.6-143.2-86.2-50.3,37.4-97.1,53.2-166.9,53.2s-122.9-16-166.3-52.5c-162.4,31-210.6,190.9-210.6,301v49.7c0,46.3,23.8,89.2,62.9,113.9Z"/>
        <path class="cls-1" d="M1223.9,1416.9c-32.9-9.6-69.6,4.5-93.6,28.1-12.4,12.2-22.6,27.2-30.3,43.3-7.7-16.2-17.9-31.1-30.3-43.3-24-23.6-60.7-37.7-93.6-28.1-35.4,10.4-58,46.1-60.3,81.6-2.3,35.4,12.3,70,31.7,100.2,36.1,56.1,90,101.6,152.5,128.9,62.5-27.3,116.4-72.7,152.5-128.9,19.4-30.2,34.1-64.8,31.7-100.2-2.3-35.4-25-71.2-60.3-81.6Z"/>
      </g>
    </g>
  </g>
</svg>