<svg width="32" height="33" viewBox="0 0 32 33" fill="none" xmlns="http://www.w3.org/2000/svg">
<path d="M26.6667 6.19238H5.33332C3.86666 6.19238 2.67999 7.39238 2.67999 8.85905L2.66666 24.8591C2.66666 26.3257 3.86666 27.5257 5.33332 27.5257H26.6667C28.1333 27.5257 29.3333 26.3257 29.3333 24.8591V8.85905C29.3333 7.39238 28.1333 6.19238 26.6667 6.19238ZM26.1333 11.859L16.7067 17.7524C16.28 18.019 15.72 18.019 15.2933 17.7524L5.86666 11.859C5.73296 11.784 5.61588 11.6826 5.52251 11.561C5.42913 11.4394 5.36141 11.3001 5.32342 11.1515C5.28544 11.003 5.27799 10.8483 5.30153 10.6968C5.32507 10.5453 5.3791 10.4001 5.46037 10.2701C5.54163 10.1401 5.64842 10.0279 5.77429 9.94038C5.90016 9.85283 6.04248 9.79173 6.19265 9.76078C6.34282 9.72983 6.4977 9.72967 6.64793 9.76031C6.79816 9.79096 6.94061 9.85176 7.06666 9.93905L16 15.5257L24.9333 9.93905C25.0594 9.85176 25.2018 9.79096 25.352 9.76031C25.5023 9.72967 25.6572 9.72983 25.8073 9.76078C25.9575 9.79173 26.0998 9.85283 26.2257 9.94038C26.3516 10.0279 26.4584 10.1401 26.5396 10.2701C26.6209 10.4001 26.6749 10.5453 26.6984 10.6968C26.722 10.8483 26.7145 11.003 26.6766 11.1515C26.6386 11.3001 26.5708 11.4394 26.4775 11.561C26.3841 11.6826 26.267 11.784 26.1333 11.859Z" fill="#FC0202"/>
</svg>
