<?xml version="1.0" encoding="UTF-8"?>
<svg xmlns="http://www.w3.org/2000/svg" version="1.1" viewBox="0 0 512 512">
  <defs>
    <style>
      .cls-1 {
        fill: red;
      }
    </style>
  </defs>
  <!-- Generator: Adobe Illustrator 28.6.0, SVG Export Plug-In . SVG Version: 1.2.0 Build 709)  -->
  <g>
    <g id="Capa_1">
      <circle class="cls-1" cx="139.5" cy="100.1" r="47"/>
      <path class="cls-1" d="M267.4,64.4c-10.7-6.1-24.4-2.6-30.9,7.8l-58,93h-77.9l-58-93c-6.5-10.5-20.2-13.9-30.9-7.8C.3,70.9-3.4,85.5,3.5,96.6l77.9,125v237.4h43.1v-156.9h30v156.9h43.1v-237.4l77.9-125c6.9-11.1,3.2-25.7-8.2-32.2Z"/>
      <circle class="cls-1" cx="372.5" cy="100.1" r="47"/>
      <path class="cls-1" d="M500.4,64.4c-10.7-6.1-24.4-2.6-30.9,7.8l-58,93h-77.9l-32.8-52.5-27.1,43.5,40.7,65.3v237.4h43.1v-156.9h30v156.9h43.1v-237.4l77.9-125c6.9-11.1,3.2-25.7-8.1-32.2Z"/>
    </g>
  </g>
</svg>