<?xml version="1.0" encoding="UTF-8"?>
<svg xmlns="http://www.w3.org/2000/svg" version="1.1" viewBox="0 0 1122 1122">
  <defs>
    <style>
      .cls-1 {
        fill: #ff0500;
      }
    </style>
  </defs>
  <!-- Generator: Adobe Illustrator 28.6.0, SVG Export Plug-In . SVG Version: 1.2.0 Build 709)  -->
  <g>
    <g id="Object">
      <g>
        <polygon class="cls-1" points="1024.9 591.9 1024.9 417.9 998.3 426.9 998.3 591.9 1024.9 591.9"/>
        <path class="cls-1" d="M865.1,521.4l-297.7,100.9c-2.7.9-5.6,1.4-8.5,1.4s-5.8-.5-8.5-1.4l-297.7-100.9v249.6h.3l-.7,3.4c0,29.7,137.3,96,306.4,96s306-66.3,306-96l-.7-3.4h1.1v-249.6Z"/>
        <polygon class="cls-1" points="252.8 472.1 559 575.9 865.1 472.1 998.3 426.9 1024.9 417.9 1038.9 413.1 559 251.5 79 413.1 252.8 472.1"/>
        <path class="cls-1" d="M980.2,632.7v101.6c0,17.3,14,31.4,31.4,31.4s31.4-14,31.4-31.4v-101.6c0-8.6-3.5-16.4-9-22h-44.7c-5.6,5.7-9.1,13.4-9.1,22Z"/>
        <polygon class="cls-1" points="985.3 591.9 985.3 610.7 989.3 610.7 1034 610.7 1037.9 610.7 1037.9 591.9 1024.9 591.9 998.3 591.9 985.3 591.9"/>
      </g>
    </g>
  </g>
</svg>