<?xml version="1.0" encoding="UTF-8"?>
<svg xmlns="http://www.w3.org/2000/svg" version="1.1" viewBox="0 0 550 550">
  <defs>
    <style>
      .cls-1 {
        fill: red;
      }
    </style>
  </defs>
  <!-- Generator: Adobe Illustrator 28.6.0, SVG Export Plug-In . SVG Version: 1.2.0 Build 709)  -->
  <g>
    <g id="Layer_1">
      <g id="_x32_5271_-_Dome_of_the_Rock">
        <g>
          <path class="cls-1" d="M275.2,360.8c-18.8,0-34.1,15.3-34.1,34.1v57.3h68.3v-57.3c-.1-18.8-15.4-34.1-34.2-34.1Z"/>
          <path class="cls-1" d="M103.5,452.2h126.1v-57.3c0-25.1,20.5-45.6,45.6-45.6s45.6,20.4,45.6,45.6v57.3h125.8v-125.7H103.6v125.7h-.1ZM395.1,389.3c0-9.5,17.2-17.2,17.2-17.2,0,0,4.3,1.9,8.6,5s8.6,7.4,8.6,12.1v28.6h-34.3v-28.5h-.1ZM337.9,389.3c0-9.5,17.2-17.2,17.2-17.2,0,0,4.3,1.9,8.6,5s8.6,7.4,8.6,12.1v28.6h-34.3v-28.5h-.1ZM177.8,389.3c0-9.5,17.2-17.2,17.2-17.2,0,0,4.3,1.9,8.6,5s8.6,7.4,8.6,12.1v28.6h-34.3v-28.5h0ZM120.6,389.3c0-9.5,17.2-17.2,17.2-17.2,0,0,4.3,1.9,8.6,5s8.6,7.4,8.6,12.1v28.6h-34.3v-28.5h0Z"/>
          <rect class="cls-1" x="103.5" y="292.2" width="343" height="22.9"/>
          <rect class="cls-1" x="172.1" y="240.7" width="205.8" height="11.4"/>
          <path class="cls-1" d="M275,149.2c-45.4,0-82.6,35.4-85.6,80h171.1c-2.9-44.6-40.1-80-85.5-80Z"/>
          <path class="cls-1" d="M269.3,126.1v11.9c1.9-.1,3.8-.2,5.7-.2s3.8,0,5.7.2v-9.4c3.7-.5,7.1-2.2,9.8-4.9s2.2-5.9,0-8.1-5.9-2.2-8.1,0-2.5,1.7-4,1.7-1.1-.1-1.7-.2h0c-.9-.3-1.7-.8-2.4-1.4-2.2-2.2-2.2-5.9,0-8.1s2.2-5.9,0-8.1-5.9-2.2-8.1,0c-6.7,6.7-6.7,17.6,0,24.3,1,.8,2,1.7,3.1,2.3Z"/>
          <rect class="cls-1" x="183.5" y="263.6" width="182.9" height="17.2"/>
        </g>
      </g>
    </g>
  </g>
</svg>