<svg width="32" height="33" viewBox="0 0 32 33" fill="none" xmlns="http://www.w3.org/2000/svg">
<path d="M19.6676 21.4944L21.562 19.5992C21.8172 19.3471 22.14 19.1746 22.4913 19.1025C22.8426 19.0304 23.2072 19.0619 23.541 19.1931L25.8498 20.1153C26.1871 20.2523 26.4763 20.486 26.681 20.7872C26.8857 21.0883 26.9967 21.4433 27 21.8074V26.0377C26.998 26.2854 26.946 26.5302 26.847 26.7572C26.748 26.9843 26.6041 27.189 26.4239 27.3589C26.2438 27.5289 26.0311 27.6606 25.7987 27.7461C25.5663 27.8317 25.3191 27.8693 25.0718 27.8568C8.89312 26.85 5.62864 13.1438 5.01126 7.89817C4.9826 7.64058 5.00879 7.37983 5.0881 7.13309C5.1674 6.88634 5.29803 6.65919 5.47139 6.46658C5.64475 6.27397 5.85691 6.12026 6.09392 6.01557C6.33092 5.91088 6.5874 5.85757 6.84648 5.85917H10.9313C11.2958 5.86024 11.6517 5.97039 11.9531 6.17545C12.2545 6.3805 12.4877 6.67108 12.6227 7.00981L13.5446 9.31956C13.6801 9.65212 13.7147 10.0173 13.644 10.3694C13.5733 10.7215 13.4005 11.0449 13.1471 11.2993L11.2527 13.1945C11.2527 13.1945 12.3437 20.5806 19.6676 21.4944Z" fill="#FC0202"/>
</svg>
