<svg clip-rule="evenodd" fill-rule="evenodd" stroke-linejoin="round" stroke-miterlimit="2" viewBox="0 0 48 48" xmlns="http://www.w3.org/2000/svg" width="300" height="300" version="1.1" xmlns:xlink="http://www.w3.org/1999/xlink" xmlns:svgjs="http://svgjs.dev/svgjs"><g width="100%" height="100%" transform="matrix(1,0,0,1,0,0)"><g transform="translate(-648 -936)"><g id="SOLID"><path d="m665.016 960.134c2.056 1.187 4.441 1.866 6.984 1.866s4.928-.679 6.984-1.866c.152-.088.324-.134.5-.134h2.414c4.6 0 8.46 3.47 8.949 8.044l1.136 10.637c.09.847-.183 1.692-.752 2.325-.569.632-1.38.994-2.231.994h-34c-.851 0-1.662-.362-2.231-.994-.569-.633-.842-1.478-.752-2.325l1.136-10.637c.489-4.574 4.349-8.044 8.949-8.044h2.414c.176 0 .348.046.5.134zm6.984-22.134c5.519 0 10 4.481 10 10s-4.481 10-10 10-10-4.481-10-10 4.481-10 10-10z" fill="#ff0000" fill-opacity="1" data-original-color="#000000ff" stroke="none" stroke-opacity="1"/></g></g></g></svg>