<?xml version="1.0" encoding="UTF-8"?>
<svg xmlns="http://www.w3.org/2000/svg" version="1.1" viewBox="0 0 492 492">
  <defs>
    <style>
      .cls-1 {
        fill: #ff0500;
      }
    </style>
  </defs>
  <!-- Generator: Adobe Illustrator 28.6.0, SVG Export Plug-In . SVG Version: 1.2.0 Build 709)  -->
  <g>
    <g id="Layer_1">
      <g>
        <path class="cls-1" d="M230.5,279.1h2.6c13.7,0,73.5.8,108.3,14.6-1.7-8.7-7.6-25.7-28.2-45.3-2-1.5-7-7-9.7-24.5,0-.2-.1-.4-.1-.7v-69.2c0-32.9-26.7-59.6-59.6-59.6s-59.6,26.7-59.6,59.6v49.4c1,1.5,3.3,4.8,6.7,9,4.7,5.8,11.5,13.4,20,20.6,22.2,18.9,44.8,26.2,67,21.8,2.2-.4,4.4,1,4.9,3.3.5,2.2-1,4.4-3.3,4.9-4.6.9-9.3,1.4-14,1.4-20.2,0-40.7-8.5-60.1-25.1-9.1-7.7-16.2-15.8-21.2-21.9v6.1c0,.2-1.5,25.6,13.2,41.9,7.9,8.5,19,13.2,33.1,13.7ZM243.7,234.9c-26.3,0-47.6-21.4-47.6-47.6v-31.3c0-26.3,21.4-47.6,47.6-47.6s47.6,21.4,47.6,47.6v31.3c0,26.2-21.3,47.6-47.6,47.6Z"/>
        <path class="cls-1" d="M172,284.9c.2-.1.4-.2.7-.3,8-2.4,19.4-.2,31.4,2.2,12,2.3,25.5,5,30.4,1.2.2-.2.4-.4.7-.6h-4.8c-16.5-.6-29.6-6.2-39-16.6-6.3-7-10.1-15.3-12.3-23-8.3,6.1-24.9,19.6-28.5,34.1-.1.2-.1.4-.2.7-.4,1.6-.5,3.2-.5,4.8s0,1.3.1,2c1.7,1.3,7.9,2.5,22-4.5Z"/>
        <path class="cls-1" d="M243.7,116.6c-21.7,0-39.3,17.6-39.3,39.3v3.4c8.6-12.5,23-20.8,39.3-20.8s30.7,8.2,39.3,20.8v-3.3c0-21.7-17.6-39.4-39.3-39.4Z"/>
        <path class="cls-1" d="M243.7,146.9c-21.7,0-39.3,17.6-39.3,39.3v1c0,21.7,17.6,39.3,39.3,39.3s39.3-17.6,39.3-39.3v-1c0-21.7-17.6-39.3-39.3-39.3Z"/>
        <path class="cls-1" d="M349.7,292.3c.9,5,.7,8,.7,8.3-.1,1.4-.9,2.6-2.1,3.3-.6.3-1.3.5-2,.5s-1.3-.1-1.9-.4c-26-13-76-15.9-100.2-16.5-.8,2.9-2.4,5.2-4.7,7-7.9,6.1-22.1,3.4-37.1.4-10.4-2-21-4.1-27.1-2.5-8.3,4.1-15.4,6.2-21,6.2s-4.1-.3-5.9-.9c-4.4-1.5-5.9-4.4-6.2-5,0-.1,0-.2,0-.2-8.3,11.3-12.8,24.8-12.8,39v66h31.3v-63.9c0-2.3,1.9-4.2,4.2-4.2s4.2,1.9,4.2,4.2v63.9h154.1v-63.9c0-2.3,1.9-4.2,4.2-4.2s4.2,1.9,4.2,4.2v63.9h31.3v-66c0-14.3-4.7-27.9-13.1-39.2Z"/>
      </g>
    </g>
  </g>
</svg>