<?xml version="1.0" encoding="UTF-8"?>
<svg xmlns="http://www.w3.org/2000/svg" version="1.1" viewBox="0 0 2000 2000">
  <defs>
    <style>
      .cls-1 {
        fill: #ed1c24;
      }
    </style>
  </defs>
  <!-- Generator: Adobe Illustrator 28.6.0, SVG Export Plug-In . SVG Version: 1.2.0 Build 709)  -->
  <g>
    <g id="Layer_1">
      <path class="cls-1" d="M1941,1243.9c-2-5.4-2.5-14.4-6.7-16.7-14.2-8-16.6-18.5-13.2-33.2,4.4-18.5,4.5-35.9-16-46.8-8.6-4.6-17-11-23.3-18.4-15.3-18-29.7-36.7-43.7-55.7-20.6-28.2-40.6-56.8-60.7-85.4-9.1-12.9-17.9-25.9-26.9-38.8,1.3-1.4,2.7-2.8,4-4.3,6.1,4.7,13.7,8.3,17.9,14.3,11.6,16.9,21.1,35.2,32.8,52,2.8,4,11.7,7.4,15.8,5.8,5.6-2.1,12.6-9.1,12.9-14.3.3-6.3-4.9-13.7-9.4-19.2-18.9-23-38.5-45.5-57.8-68.2-.3,1.5-.6,3.1-.9,4.6-4.4-1.9-9.5-2.9-12.9-5.9-2.1-1.9-1-9.6-2.3-9.9-24.3-4.8-14.8-31.6-28.4-43.3,3,.5,5.9,1.1,7.7,1.4-4.5-16.3-8.8-31.9-13.1-47.6,14.6,15.7,18.6,42.9,49.5,33.5-1.4-5.3-1.1-16.5-5.4-18.7-17.4-8.8-15.8-21.5-13.7-37.2,1.8-13.6,7-28.7-11-38.9-24.3-13.7-44-32.6-54-59.9-1.4-3.9-5.2-6.9-8-10.2-16.6-19.9-33.9-39.2-49.5-59.8-14.1-18.8-26.3-39.1-39.4-58.7-3.3-4.9-6.7-9.6-11.7-16.7,13-2.7,22.7-4.6,32.4-6.6,0-1.2.1-2.4.2-3.6-24.6-9.2-49.2-18.3-78.3-29.1q24.1,33.8,17.2,47c-17.2-23.5-33.4-45.8-48.3-66.2-3.8-.3-9.7.8-10.8-1-4.6-7.6-8-16-11.3-24.3-4-9.6-5.7-21.5-21.7-19.7,2.1,6.2,3.5,10.5,5,14.8-19.6,6.6-7.9,19.7-10.2,28.9-2.2,4.6-4.3,9.1-8.3,17.5-18-18.7-35.2-36.7-52.4-54.6-1.2,1.3-2.4,2.5-3.5,3.8,1.3,5.5,2.7,11,5.1,21.1-10.4-6.5-16.5-10.3-22.7-14.1-6.3-3.9-15.8-12.6-18.3-10.9-18.5,12.3-31-2.5-45.8-7.5-22.7-7.7-45.7-14.7-68.8-22.1,1.8,5.4,4,12.2,6.4,19.3-5.8,4.8-11.4,9.3-17.5,14.4,6.1,9.7,12,19.3,19.7,31.7-5.4-2.4-7.7-2.7-8.6-3.9-8.7-12.8-15-27.3-33.4-30.5-6.8-1.2-14.4-7.2-18.4-13.2-7-10.4-6-11.1-18.7-10.4,17.7,29.2,35.6,58.7,51.9,85.7-7.5,6.6-11.3,11.9-16.3,13.8-6.9,2.6-16.4,5.8-21.8,3.1-14.7-7.6-27.9-18.2-41.7-27.6,2.7-2.7,5.3-5.4,8-8.1-3.6.9-9,3.7-10.6,2.3-18.2-15.7-38-30.3-53.1-48.7-23.3-28.5-55.3-31.5-84-37.9-2.5,8.9-2.4,17.8-6.8,22.2-8,7.8-4.5,12.7.3,19.1,10.7,14,21.3,28.2,34.8,46.2-22.5-12.5-41.1-22.8-58.6-32.5-3.3,7.4-4.6,15.9-7.8,16.7-22.3,5.9-36-7.9-46.4-23.9-3.8,4.9-7.2,12.4-9.7,12.1-10.4-1.3-20.5-4.9-31-7.6-6.1,16.3-10.5,17.4-24.7,5.3-4.4-3.7-9.1-7.3-14.1-10-11.5-6.3-18.4.5-24.8,8.9-2.7-2.3-6-5.1-10.9-9.3v47.1c-2,.5-4.1,1-6.1,1.5-4.4-11.3-8.8-22.5-14.6-37.5v17.6c-5.7-6.8-11.4-13.6-17.1-20.4-1.6,1.2-3.2,2.4-4.9,3.6,2.3,11.1,4.5,22.1,7,34.6-18.4-2.7-29-7.5-30.2-25.3-.4-5.9-9.6-11.2-15.6-17.6-5.6,13.7,9.9,28.8-7.9,37.2-9,4.2-18,8.3-27.8,12.8,6.3,20,12.9,40.6,19.7,62.1-10.2-.5-17.7-2.9-23-.6-10.6,4.7-12.6,4.8-16.1-4.1-10.6-26.4-21.5-52.7-33-78.7-2.3-5.3-7.7-9.2-14.9-17.4,3,12.8,4.6,19.7,6.2,26.7-1.1.4-2.2.9-3.3,1.3-4.7-9.7-9.5-19.3-14.2-29-1.4.6-2.8,1.1-4.2,1.7,6.7,21,13.3,42.1,20,63.1-1.5.6-3.1,1.2-4.6,1.8-19.8-31.2-39.5-62.4-59.3-93.6-1.7.3-3.5.6-5.2,1,2.5,16.6,5.1,33.3,7.6,49.9-1.6.5-3.3,1-4.9,1.5-12.3-17.5-24.6-35-36.8-52.5-2.2.9-4.3,1.8-6.5,2.7,5.1,14.4,10.1,28.9,14.9,42.5-14.2-11-28.3-21.8-41.8-32.3,15.1,32.3,29.6,63.5,44.2,94.8-1.4.7-2.8,1.5-4.2,2.2-2.5-2.4-5.8-7.2-7.4-6.7-17.6,5.4-31.5-1.9-43.8-12.6-12.5-10.9-24.2-22.7-35.3-35-16.9-18.8-32.9-38.4-49.3-57.7-8.4-9.9-16.4-20.2-26-28.7-.9-.8-11.9,9.7-18.1,15.1-.7.6-.5,2.3-1.1,5.1,15.7,30.4,31.9,62,48.2,93.5-1.3,1.1-2.6,2.1-3.9,3.2-3.6-4-6.7-8.5-10.8-11.9-7.5-6.3-17.8-18.4-22.9-16.6-13.6,4.8-4.5,15.6-.7,24.5,2.5,5.9,3.3,12.6,4.8,18.9-10.6-5-16.6-12.1-24.3-16.4-22.2-12.5-49.4-15.4-65.5-39.4-2.1,2-4.1,4.1-6.2,6.1,14.3,21.3,28.7,42.6,43,63.9-2.5,1.6-4.9,3.2-7.4,4.9-15.5-22.5-31-45-46.5-67.6-6.9,15.5-16,3.4-21.8-.2-7.6-4.7-12.8-13.2-19-20.1-.7.6-1.4,1.3-2.1,1.9,8,17.8,15.9,35.6,23.9,53.3-1.2.6-2.5,1.3-3.7,1.9-10.3-17.3-20.6-34.5-33.3-55.9-2.8,14.1-4.4,22.7-6.2,31.7-3.1-1.6-5.5-2.9-5.2-2.7-4.5,6.1-8.5,11.4-12.9,17.4-6.6-7.5-11-12.4-15.4-17.3-.6.6-1.2,1.3-1.8,1.9,1.8,5.7,3.6,11.5,6.4,20.4-9-5.6-14.5-9-20.6-12.8-4.5,23-14.6,44.7,8.3,63.9-5.8,2.2-10.1,5-11.2,4.1-11.1-9.5-21.7-19.5-32.2-29.2-.6,3.5-1.4,8.5-2.7,16.2-4.1-6.3-6.7-10.2-9.4-14.4-5.1,2.1-10.1,4.2-15.7,6.4,7,25.6,43.7,41.8,18.9,74.9-5.6-14-11.3-28.3-17-42.6-1,.4-1.9.7-2.9,1.1,2.1,9.7,4.1,19.4,6.5,30.5-6.6-3.2-11.9-5.8-19.8-9.6-1,7.4-4.6,15.6-2.1,18.4,15.7,17.6,18.2,39.3,21.8,60.9.5,2.8,1.5,6.8,3.6,7.8,17.6,9.2,21.9,27.5,29.8,43.1,6.3,12.5,9.5,26.8,16.6,38.7,30.1,50.8,67.5,97.4,85.7,154.8,7.2,22.8,14.9,45.4,22.4,68.1-1.3.6-2.7,1.1-4,1.7-2.7-4-5.5-8-8.2-12-1.7.7-3.5,1.5-5.2,2.2,5.9,14,12.3,27.9,17.7,42.2,4.8,12.7,8,26,12.9,38.6,3.6,9.4,8.5,18.4,13.6,27.1,2.9,5,8.5,8.5,11,13.5,10.9,22.5,19.5,46.3,32.1,67.7,19.8,33.7,45.6,64.3,62.6,99.2,18,37,28.6,77.6,43.3,119-7-1.8-10.8-2.8-20.1-5.2,6.6,11.5,9.3,23.1,14.9,24.8,13.6,3.9,14.7,13.2,16.6,23.8,1.1,6.1,3.4,12,5.2,18,1.8-.2,3.6-.4,5.5-.5,1-6.9,2.1-13.8,3.3-22.1,10.8,11,14.3,31.8,35.6,20.9.8-.4,3.3,1.6,4.4,2.9,9.4,11.8,20.3,22.7,27.4,35.8,6.6,12.3,12.8,13.3,21.5,7.1,2-7,3.7-12.9,6.5-22.4,8.4,15.1,14.3,25.7,20.2,36.3,1-.5,2-1.1,3.1-1.6-5-11.5-9.9-22.9-14.9-34.4,8,6.3,11.2,15,16.4,22.3,4.8,6.8,11.5,12.1,17.4,18.1,1.2-1,2.4-2,3.6-3-3-8.4-5.9-16.8-8.9-25.2,1.3-.5,2.6-.9,4-1.4,5.2,10.8,10.4,21.7,15,31.4,2.8-4.1,5-11.2,8.2-11.7,23.3-3.4,38.8,9.2,49.8,29.5,10.2-20.1,23.7-19.5,43.2,0,7-18.2,13.2-19.6,27.7-7.1,6.2,5.3,13,9.9,19.9,14.3,2.1,1.3,5.6,1.6,8.1,1,3.4-.9,6.4-3.2,9.5-4.9.7,1.3,1.4,2.7,2.2,4,.7-3.8,1.4-7.5,2.2-12,4,4.2,6.9,7.3,10.7,11.3,2.1-16.8,4-31.5,5.9-46.3,2.2-.2,4.3-.4,6.5-.6,3.8,11.7,7.5,23.5,12.2,37.9,1.2-8.5,2-13.8,2.4-16.5,5.3,6.7,11.1,14,16.9,21.4,1.9-1.2,3.9-2.5,5.8-3.7-1.6-7-4.3-14.1-4.4-21.1,0-4.1,4.1-8.3,6.4-12.5,8,5.6,20.3,4.4,22.7,18.8,1.5,9.3,8.7,17.6,15.4,30.4,7.3-17.3-7.3-33.5,12.1-40.1,10.1-3.4,20.2-6.8,31.9-10.7-5.2-19.1-11-40.5-16.3-60.3,12.4-.7,22.8-2.2,33-1.6,4.8.3,13.5,4.4,13.5,6.8,0,17,14.7,21.6,23.8,31.1,11.1,11.8,21.4,24.4,31.7,37,5.4,6.5,10,13.6,15,20.4,1-.8,2.1-1.5,3.1-2.3-.4-5.3-.8-10.7-1.3-16,1.1-.2,2.3-.4,3.4-.5,2.2,5.4,4.5,10.9,6.7,16.3,1.6-.5,3.1-1,4.7-1.5-5.4-17.1-10.9-34.1-16.3-51.2,1.6-.5,3.2-1,4.8-1.5,17.9,19.4,19.8,54.8,55.8,58-1.6-8.2-2.9-15-4.2-21.9,1.8-.9,3.5-1.9,5.3-2.8,5.5,8.3,10.4,17.2,16.9,24.6,3.7,4.3,10.1,6.2,15.3,9.2-.6-5.1-.9-10.2-2-15.1-1-4.5-3-8.7-4.6-13,1.1-.5,2.3-.9,3.4-1.4,4.1,5.8,8.3,11.6,12.4,17.4,2-.3,3.9-.5,5.9-.8,0-8,2.4-17-.5-23.8-7.8-18.5-17.7-36.1-27.9-56.1,6.7,2.1,10,3.7,13.5,4.2,10.5,1.5,24.7-1.2,30.9,4.6,31.2,29.2,60.2,60.9,90.5,91.2,5.8,5.8,13.7,9.4,20,13.6,17.5-43.4-19-65.8-24.8-100.1,10.1,10.5,20.1,20.9,30.1,31.3,21.2-18.4-10.5-32-1.4-48.5,18,9.8,30.5,29.9,53.9,24.4,9.8,8,19.5,16.1,29.3,24.1,1.7-1.7,3.3-3.3,5-5-14.3-20.2-28.6-40.5-42.9-60.7,2.1-1.4,4.2-2.9,6.3-4.3,21,28.1,42,56.3,62.9,84.4,1.5-1.2,3-2.4,4.5-3.7-6.5-7.2-12.9-14.3-22.8-25.3,24.1,2.7,32.4,20.8,48,32.7-11.8-23-21.7-42.4-31.7-61.9,1.2-.7,2.3-1.4,3.5-2.1l31.6,48.6c1.6-.7,3.1-1.4,4.7-2,.4-8.6.8-17.3,1.2-26.7,2.6,1.8,5,3.4,6.6,4.5,2.7-5.6,5.5-11.5,9.1-18.9,6.6,7.2,11.2,12.1,19.3,21-3.8-11.5-5.7-17.3-8.8-26.9,8.1,5.6,12.6,8.8,16.7,11.6,6.8-4.3,12.9-8.2,15.8-9.9,11.7,4.4,20.5,6.6,28.1,10.9,7.2,4.1,19.2,11.7,18.4,15.8-5.5,28.4,23.1,31.5,33.5,47.6,1.6,2.4,10.1.3,16.9.3-5.3-11-8.6-17.8-12.5-25.9q19.4.5,28.9-17.5c6.2,3.9,12.6,11.6,18.2,11.1,19.8-1.9,12.5,10,11.6,17.3,8.3,5.2,15.7,9.9,25.2,15.9-3-5.4-4.8-8.7-7.6-13.7,5.1,2.5,8.7,4.2,14.2,6.9-9.4-19.4-18-37.1-27.1-55.9,15.3,5.7,27.8,10.4,42.4,15.8-2.1-9.8-3.3-15.3-4.5-20.9,1.5-1,3-2,4.5-3,11.2,11.4,22.3,22.9,36.9,37.7-1-9.9-1.4-13.8-1.8-17.7,1.4-1.1,2.7-2.1,4.1-3.2,12.9,14,25.7,28,38.6,42,2.1-.8,4.2-1.5,6.3-2.3,0-6.1.7-12.2-.1-18.2-2.8-20.9-19.2-33.5-31.2-48.6-8.5-10.7-8.2-23,1.4-29.9,10.3,17.7,19.6,36.3,31.4,53.1,11.7,16.7,25.1,32.4,39.3,46.9,9.1,9.3,21,16.1,32.2,23.1,2.1,1.3,6.8-1.8,11.4-3.1-3.2-3.5-5.7-6.2-9.4-10.2,11.9-8.7,11.5-16.5,2.7-26.9-7.8-9.1-12.5-20.9-18.5-31.5,2-1.4,4-2.8,6.1-4.2,15.3,16.4,30.6,32.9,46.6,50.1,5-4.5,12.6-11.3,19.1-17.2-7.6-26.9-14.8-52.5-20.5-72.6,5.2-8.9,8.2-13.9,12-20.4,4,7.2,11.2,14.5,12.2,22.6,3.3,27.8,26.8,45.2,55.4,36.4-2.1-24.9-1.9-50.9-7.3-75.6-4-18.3,8-38.4-7.2-55.1-1.2-1.3,3.1-7.4,4.8-11.4,1.4-3.3,4.4-7,3.7-9.9-4.7-21.3.9-45.4-16.5-63.5-.8-.9-.1-3.2-.1-5,3.3,1.4,6.2,2.7,8.3,3.6-4.7-16.7-9.3-32.7-15-52.8,18.2,15.2,17.7,48.7,51.6,35.6ZM932.9,1288.3c-161.6,0-292.6-131-292.6-292.6s131-292.6,292.6-292.6,204.1,59.6,254.5,148.1c-43.8-57.8-113.1-95.2-191.2-95.2-132.4,0-239.7,107.3-239.7,239.7s107.3,239.7,239.7,239.7,147.5-37.4,191.2-95.2c-50.3,88.4-145.4,148.1-254.5,148.1ZM1297.4,1044.6l-56.9,85.5-4.2-102.7-98.9-27.7,96.3-35.8-4.2-102.7,63.8,80.6,96.3-35.8-56.9,85.5,63.8,80.6-98.9-27.7Z"/>
    </g>
  </g>
</svg>